# xmcd
#
# Track frame offsets:
#	150
#	13110
#	29135
#	41085
#	56445
#	69322
#	89027
#	106442
#	117920
#	128762
#	138822
#	151912
#	168015
#	177222
#	193822
#	206395
#	217172
#	231222
#
# Disc length: 3348 seconds
#
# Revision: 1
# Processed by: cddbd v1.5.2PL0 Copyright (c) Steve Scherf et al.
# Submitted via: Collectorz.com_Music_Collector 6.10
#
DISCID=000d1212
DTITLE=Various Artist - Rosensongs
DYEAR=1900
DGENRE=Easy Listening
TTITLE0=Freddy Breck - Rote Rosen
TTITLE1=Die Romanticas - Auf Rote Rosen Fallen Tränen
TTITLE2=Peter Kraus - Schwartze Rose, Rosemarie
TTITLE3=Rene Carol - Rote Rosen, Rote Lippen, Roter Wein
TTITLE4=Cindy and Bert - Ich Hab Dierose Geseh'n
TTITLE5=Bernd Clüver - Das Tor Zum Garten Der Träumen
TTITLE6=Die Paldauer - Eine Rote Rose
TTITLE7=Renate Kern - Alle Blumen Brauchen Sonneschein
TTITLE8=Mancini Sound Orchestra - Red Roses for A Blue Lady
TTITLE9=Connie Francis - La Vie En Rose
TTITLE10=Lynn Anderson - Rose Garden
TTITLE11=Baccara - Sorry I'm A Lady
TTITLE12=Kurt Hohenberger - Das Lied Derr Ose
TTITLE13=Bata Illic - Augen Wie Blumen
TTITLE14=Heintje Simons - Sag'dankeschön Mit Roten Rosen
TTITLE15=Wsiw Malmkwist - Danke Für Die Blumen
TTITLE16=Die Blizzards - Ein Paradies Auf Erden
TTITLE17=Andy Borg - Baccarole Vom Abschied
EXTD=
EXTT0=
EXTT1=
EXTT2=
EXTT3=
EXTT4=
EXTT5=
EXTT6=
EXTT7=
EXTT8=
EXTT9=
EXTT10=
EXTT11=
EXTT12=
EXTT13=
EXTT14=
EXTT15=
EXTT16=
EXTT17=
PLAYORDER=
